<svg width="622" height="611" viewBox="0 0 622 611" fill="none" xmlns="http://www.w3.org/2000/svg">
<path d="M32.5 436C40.9 459.6 56.6667 483.167 63.5 492L96 458.5C91.2 452.5 88 447 87 445L305.5 226.5V156L190 271.5V207.5H140V328.5L32.5 436Z" fill="url(#paint0_linear_1_84)"/>
<path d="M95.9229 458.558C143.131 523.088 219.421 565 305.5 565C305.667 565 305.833 564.998 306 564.998V610.998C305.833 610.998 305.667 611 305.5 611C206.994 611 119.379 564.378 63.5127 491.996L95.9229 458.558Z" fill="url(#paint1_linear_1_84)"/>
<path d="M306 0.000976562V46.001C305.833 46.0007 305.667 46 305.5 46C162.182 46 46 162.182 46 305.5C46 329.829 49.349 353.376 55.6094 375.705L19.4541 413.007C6.87963 379.566 0 343.336 0 305.5C0 136.777 136.777 0 305.5 0C305.667 0 305.833 0.000709628 306 0.000976562Z" fill="url(#paint2_linear_1_84)"/>
<path d="M306 412.5V483L200 377.5L235.5 342L306 412.5Z" fill="url(#paint3_linear_1_84)"/>
<path d="M306 413V483L622 154L588 119L306 413Z" fill="url(#paint4_linear_1_84)"/>
<path d="M305.5 226.5V156L411.5 261.5L376 297L305.5 226.5Z" fill="url(#paint5_linear_1_84)"/>
<path d="M558 411.5L537.5 458.5L452 376.5L487.5 341L558 411.5Z" fill="url(#paint6_linear_1_84)"/>
<path d="M600.763 226.789C607.44 251.902 611 278.285 611 305.5C611 474.056 474.493 610.728 306 610.998V564.998C449.088 564.728 565 448.651 565 305.5C565 292.302 564.013 279.334 562.112 266.666L600.763 226.789Z" fill="url(#paint7_linear_1_84)"/>
<path d="M306 0.000976562C399.902 0.151396 483.868 42.6669 539.81 109.456L507.59 142.698C460.118 83.8452 387.464 46.1546 306 46.001V0.000976562Z" fill="url(#paint8_linear_1_84)"/>
<defs>
<linearGradient id="paint0_linear_1_84" x1="233" y1="621" x2="433" y2="-455" gradientUnits="userSpaceOnUse">
<stop stop-color="#247B7F"/>
<stop offset="1" stop-color="#41DEE5"/>
</linearGradient>
<linearGradient id="paint1_linear_1_84" x1="233" y1="621" x2="433" y2="-455" gradientUnits="userSpaceOnUse">
<stop stop-color="#247B7F"/>
<stop offset="1" stop-color="#41DEE5"/>
</linearGradient>
<linearGradient id="paint2_linear_1_84" x1="233" y1="621" x2="433" y2="-455" gradientUnits="userSpaceOnUse">
<stop stop-color="#247B7F"/>
<stop offset="1" stop-color="#41DEE5"/>
</linearGradient>
<linearGradient id="paint3_linear_1_84" x1="233" y1="621" x2="433" y2="-455" gradientUnits="userSpaceOnUse">
<stop stop-color="#247B7F"/>
<stop offset="1" stop-color="#41DEE5"/>
</linearGradient>
<linearGradient id="paint4_linear_1_84" x1="295" y1="639" x2="401" y2="-23" gradientUnits="userSpaceOnUse">
<stop stop-color="#45A482"/>
<stop offset="1" stop-color="#37A39B"/>
</linearGradient>
<linearGradient id="paint5_linear_1_84" x1="295" y1="639" x2="401" y2="-23" gradientUnits="userSpaceOnUse">
<stop stop-color="#45A482"/>
<stop offset="1" stop-color="#37A39B"/>
</linearGradient>
<linearGradient id="paint6_linear_1_84" x1="295" y1="639" x2="401" y2="-23" gradientUnits="userSpaceOnUse">
<stop stop-color="#45A482"/>
<stop offset="1" stop-color="#37A39B"/>
</linearGradient>
<linearGradient id="paint7_linear_1_84" x1="295" y1="639" x2="401" y2="-23" gradientUnits="userSpaceOnUse">
<stop stop-color="#45A482"/>
<stop offset="1" stop-color="#37A39B"/>
</linearGradient>
<linearGradient id="paint8_linear_1_84" x1="295" y1="639" x2="401" y2="-23" gradientUnits="userSpaceOnUse">
<stop stop-color="#45A482"/>
<stop offset="1" stop-color="#37A39B"/>
</linearGradient>
</defs>
</svg>
